<svg width="731" height="298" viewBox="0 0 731 298" fill="none" xmlns="http://www.w3.org/2000/svg">
<path d="M224 74.5C224 115.645 189.974 149 148 149C106.026 149 72 115.645 72 74.5C72 33.3548 106.026 0 148 0C189.974 0 224 33.3548 224 74.5Z" fill="#EA868F"/>
<path d="M643 74.5C643 115.645 608.974 149 567 149C525.026 149 491 115.645 491 74.5C491 33.3548 525.026 0 567 0C608.974 0 643 33.3548 643 74.5Z" fill="#EA868F"/>
<ellipse cx="365.5" cy="187.5" rx="365.5" ry="110.5" fill="#EA868F"/>
<ellipse cx="301.166" cy="135.5" rx="35.1665" ry="38.5" fill="white"/>
<ellipse cx="301.166" cy="154" rx="28.3601" ry="20" fill="#7749F8"/>
<ellipse cx="430.488" cy="135.5" rx="35.1665" ry="38.5" fill="white"/>
<ellipse cx="430.488" cy="154" rx="28.3601" ry="20" fill="#7749F8"/>
</svg>
