<svg width="1280" height="406" viewBox="0 0 1280 406" fill="none" xmlns="http://www.w3.org/2000/svg">
<path d="M931.94 196.042C933.913 193.967 937.223 193.969 939.193 196.049L1147.59 416.013C1150.61 419.201 1148.35 424.456 1143.95 424.452L726.776 424.084C722.385 424.08 720.131 418.821 723.157 415.638L931.94 196.042Z" fill="#FECBA1"/>
<path d="M418.55 90.7209C420.491 88.8421 423.573 88.8448 425.511 90.727L755.864 411.617C759.086 414.747 756.868 420.208 752.376 420.204L91.1042 419.62C86.6124 419.616 84.4036 414.152 87.6311 411.028L418.55 90.7209Z" fill="#FECBA1"/>
<path d="M36.6032 6.84685C38.6046 4.35737 42.3953 4.35737 44.3968 6.84685L404.187 454.367C406.818 457.639 404.489 462.5 400.29 462.5H-319.29C-323.489 462.5 -325.818 457.639 -323.187 454.367L36.6032 6.84685Z" fill="#FFDA6A"/>
<path d="M794.181 104.553C796.115 101.259 800.879 101.263 802.808 104.56L988.751 422.401C990.702 425.736 988.295 429.929 984.431 429.925L611.984 429.597C608.12 429.594 605.72 425.396 607.677 422.065L794.181 104.553Z" fill="#FEB272"/>
<path d="M1186.44 64.2847C1188.41 62.1801 1191.76 62.183 1193.73 64.2912L1573.35 469.818C1576.34 473.014 1574.07 478.239 1569.69 478.235L809.743 477.565C805.366 477.561 803.106 472.332 806.103 469.142L1186.44 64.2847Z" fill="#FFDA6A"/>
<path d="M618.341 6.91613C620.321 4.04996 624.552 4.03707 626.55 6.89109L866.953 350.303C869.269 353.611 866.911 358.158 862.873 358.17L384.165 359.634C380.127 359.646 377.74 355.114 380.036 351.791L618.341 6.91613Z" fill="#FFC107"/>
</svg>
