<svg width="731" height="298" viewBox="0 0 731 298" fill="none" xmlns="http://www.w3.org/2000/svg">
<path d="M224 74.5C224 115.645 189.974 149 148 149C106.026 149 72 115.645 72 74.5C72 33.3548 106.026 0 148 0C189.974 0 224 33.3548 224 74.5Z" fill="#EA868F"/>
<path d="M643 74.5C643 115.645 608.974 149 567 149C525.026 149 491 115.645 491 74.5C491 33.3548 525.026 0 567 0C608.974 0 643 33.3548 643 74.5Z" fill="#EA868F"/>
<ellipse cx="365.5" cy="187.5" rx="365.5" ry="110.5" fill="#EA868F"/>
<ellipse cx="301.166" cy="135.5" rx="35.1665" ry="38.5" fill="white"/>
<ellipse cx="301.166" cy="154" rx="28.3601" ry="20" fill="#7749F8"/>
<ellipse cx="430.488" cy="135.5" rx="35.1665" ry="38.5" fill="white"/>
<ellipse cx="430.488" cy="154" rx="28.3601" ry="20" fill="#7749F8"/>
<path d="M96.044 236.516L97.556 233.096C98.636 233.84 99.812 234.416 101.084 234.824C102.38 235.208 103.664 235.412 104.936 235.436C106.208 235.46 107.36 235.316 108.392 235.004C109.448 234.692 110.288 234.224 110.912 233.6C111.536 232.976 111.848 232.196 111.848 231.26C111.848 230.132 111.38 229.292 110.444 228.74C109.532 228.164 108.284 227.876 106.7 227.876H100.832V224.204H106.34C107.756 224.204 108.848 223.916 109.616 223.34C110.408 222.764 110.804 221.984 110.804 221C110.804 220.184 110.54 219.512 110.012 218.984C109.508 218.456 108.812 218.06 107.924 217.796C107.06 217.532 106.076 217.412 104.972 217.436C103.892 217.436 102.764 217.604 101.588 217.94C100.412 218.252 99.296 218.72 98.24 219.344L96.764 215.564C98.348 214.724 100.004 214.136 101.732 213.8C103.484 213.464 105.176 213.368 106.808 213.512C108.44 213.656 109.904 214.028 111.2 214.628C112.52 215.228 113.576 216.02 114.368 217.004C115.16 217.964 115.556 219.104 115.556 220.424C115.556 221.624 115.232 222.692 114.584 223.628C113.96 224.54 113.096 225.248 111.992 225.752C110.888 226.256 109.604 226.508 108.14 226.508L108.32 225.356C109.976 225.356 111.416 225.644 112.64 226.22C113.888 226.772 114.848 227.54 115.52 228.524C116.216 229.508 116.564 230.648 116.564 231.944C116.564 233.168 116.252 234.26 115.628 235.22C115.004 236.156 114.152 236.948 113.072 237.596C111.992 238.22 110.756 238.688 109.364 239C107.972 239.288 106.508 239.396 104.972 239.324C103.436 239.252 101.9 238.988 100.364 238.532C98.852 238.076 97.412 237.404 96.044 236.516ZM133.067 239V235.112L132.815 234.284V227.48C132.815 226.16 132.419 225.14 131.627 224.42C130.835 223.676 129.635 223.304 128.027 223.304C126.947 223.304 125.879 223.472 124.823 223.808C123.791 224.144 122.915 224.612 122.195 225.212L120.431 221.936C121.463 221.144 122.687 220.556 124.103 220.172C125.543 219.764 127.031 219.56 128.567 219.56C131.351 219.56 133.499 220.232 135.011 221.576C136.547 222.896 137.315 224.948 137.315 227.732V239H133.067ZM127.019 239.252C125.579 239.252 124.319 239.012 123.239 238.532C122.159 238.028 121.319 237.344 120.719 236.48C120.143 235.592 119.855 234.596 119.855 233.492C119.855 232.412 120.107 231.44 120.611 230.576C121.139 229.712 121.991 229.028 123.167 228.524C124.343 228.02 125.903 227.768 127.847 227.768H133.427V230.756H128.171C126.635 230.756 125.603 231.008 125.075 231.512C124.547 231.992 124.283 232.592 124.283 233.312C124.283 234.128 124.607 234.776 125.255 235.256C125.903 235.736 126.803 235.976 127.955 235.976C129.059 235.976 130.043 235.724 130.907 235.22C131.795 234.716 132.431 233.972 132.815 232.988L133.571 235.688C133.139 236.816 132.359 237.692 131.231 238.316C130.127 238.94 128.723 239.252 127.019 239.252ZM155.015 231.404C154.103 231.836 153.131 232.196 152.099 232.484C151.091 232.748 150.023 232.88 148.895 232.88C146.471 232.88 144.587 232.316 143.243 231.188C141.899 230.06 141.227 228.308 141.227 225.932V219.776H145.727V225.644C145.727 226.916 146.087 227.84 146.807 228.416C147.551 228.992 148.571 229.28 149.867 229.28C150.731 229.28 151.595 229.172 152.459 228.956C153.323 228.74 154.175 228.44 155.015 228.056V231.404ZM154.691 239V219.776H159.191V239H154.691ZM174.207 239.252C172.071 239.252 170.199 238.832 168.591 237.992C167.007 237.128 165.771 235.952 164.883 234.464C164.019 232.976 163.587 231.284 163.587 229.388C163.587 227.468 164.007 225.776 164.847 224.312C165.711 222.824 166.887 221.66 168.375 220.82C169.887 219.98 171.603 219.56 173.523 219.56C175.395 219.56 177.063 219.968 178.527 220.784C179.991 221.6 181.143 222.752 181.983 224.24C182.823 225.728 183.243 227.48 183.243 229.496C183.243 229.688 183.231 229.904 183.207 230.144C183.207 230.384 183.195 230.612 183.171 230.828H167.151V227.84H180.795L179.031 228.776C179.055 227.672 178.827 226.7 178.347 225.86C177.867 225.02 177.207 224.36 176.367 223.88C175.551 223.4 174.603 223.16 173.523 223.16C172.419 223.16 171.447 223.4 170.607 223.88C169.791 224.36 169.143 225.032 168.663 225.896C168.207 226.736 167.979 227.732 167.979 228.884V229.604C167.979 230.756 168.243 231.776 168.771 232.664C169.299 233.552 170.043 234.236 171.003 234.716C171.963 235.196 173.067 235.436 174.315 235.436C175.395 235.436 176.367 235.268 177.231 234.932C178.095 234.596 178.863 234.068 179.535 233.348L181.947 236.12C181.083 237.128 179.991 237.908 178.671 238.46C177.375 238.988 175.887 239.252 174.207 239.252ZM188.165 239V219.776H192.881L200.621 233.42H198.749L206.885 219.776H211.097L211.133 239H207.065V224.6L207.785 225.068L200.585 236.984H198.641L191.405 224.744L192.269 224.528V239H188.165ZM227.118 239V219.776H231.618V232.448L242.238 219.776H246.342V239H241.842V226.328L231.258 239H227.118ZM252.395 239V219.776H267.155V223.592H255.851L256.895 222.584V239H252.395ZM281.086 239.252C279.526 239.252 278.098 238.892 276.802 238.172C275.53 237.452 274.51 236.372 273.742 234.932C272.998 233.468 272.626 231.62 272.626 229.388C272.626 227.132 272.986 225.284 273.706 223.844C274.45 222.404 275.458 221.336 276.73 220.64C278.002 219.92 279.454 219.56 281.086 219.56C282.982 219.56 284.65 219.968 286.09 220.784C287.554 221.6 288.706 222.74 289.546 224.204C290.41 225.668 290.842 227.396 290.842 229.388C290.842 231.38 290.41 233.12 289.546 234.608C288.706 236.072 287.554 237.212 286.09 238.028C284.65 238.844 282.982 239.252 281.086 239.252ZM270.43 245.984V219.776H274.714V224.312L274.57 229.424L274.93 234.536V245.984H270.43ZM280.582 235.4C281.662 235.4 282.622 235.16 283.462 234.68C284.326 234.2 285.01 233.504 285.514 232.592C286.018 231.68 286.27 230.612 286.27 229.388C286.27 228.14 286.018 227.072 285.514 226.184C285.01 225.272 284.326 224.576 283.462 224.096C282.622 223.616 281.662 223.376 280.582 223.376C279.502 223.376 278.53 223.616 277.666 224.096C276.802 224.576 276.118 225.272 275.614 226.184C275.11 227.072 274.858 228.14 274.858 229.388C274.858 230.612 275.11 231.68 275.614 232.592C276.118 233.504 276.802 234.2 277.666 234.68C278.53 235.16 279.502 235.4 280.582 235.4ZM306.739 239V235.112L306.487 234.284V227.48C306.487 226.16 306.091 225.14 305.299 224.42C304.507 223.676 303.307 223.304 301.699 223.304C300.619 223.304 299.551 223.472 298.495 223.808C297.463 224.144 296.587 224.612 295.867 225.212L294.103 221.936C295.135 221.144 296.359 220.556 297.775 220.172C299.215 219.764 300.703 219.56 302.239 219.56C305.023 219.56 307.171 220.232 308.683 221.576C310.219 222.896 310.987 224.948 310.987 227.732V239H306.739ZM300.691 239.252C299.251 239.252 297.991 239.012 296.911 238.532C295.831 238.028 294.991 237.344 294.391 236.48C293.815 235.592 293.527 234.596 293.527 233.492C293.527 232.412 293.779 231.44 294.283 230.576C294.811 229.712 295.663 229.028 296.839 228.524C298.015 228.02 299.575 227.768 301.519 227.768H307.099V230.756H301.843C300.307 230.756 299.275 231.008 298.747 231.512C298.219 231.992 297.955 232.592 297.955 233.312C297.955 234.128 298.279 234.776 298.927 235.256C299.575 235.736 300.475 235.976 301.627 235.976C302.731 235.976 303.715 235.724 304.579 235.22C305.467 234.716 306.103 233.972 306.487 232.988L307.243 235.688C306.811 236.816 306.031 237.692 304.903 238.316C303.799 238.94 302.395 239.252 300.691 239.252ZM320.551 239V222.512L321.595 223.592H313.783V219.776H331.783V223.592H324.007L325.051 222.512V239H320.551ZM344.695 226.112C347.167 226.112 349.051 226.664 350.347 227.768C351.643 228.872 352.291 230.432 352.291 232.448C352.291 234.536 351.571 236.168 350.131 237.344C348.691 238.496 346.663 239.06 344.047 239.036L335.047 239V219.776H339.547V226.076L344.695 226.112ZM343.651 235.724C344.971 235.748 345.979 235.472 346.675 234.896C347.371 234.32 347.719 233.48 347.719 232.376C347.719 231.272 347.371 230.48 346.675 230C346.003 229.496 344.995 229.232 343.651 229.208L339.547 229.172V235.688L343.651 235.724ZM366.196 239V219.776H375.592C377.92 219.776 379.744 220.208 381.064 221.072C382.408 221.936 383.08 223.16 383.08 224.744C383.08 226.304 382.456 227.528 381.208 228.416C379.96 229.28 378.304 229.712 376.24 229.712L376.78 228.596C379.108 228.596 380.836 229.028 381.964 229.892C383.116 230.732 383.692 231.968 383.692 233.6C383.692 235.304 383.056 236.636 381.784 237.596C380.512 238.532 378.58 239 375.988 239H366.196ZM370.48 235.724H375.628C376.852 235.724 377.776 235.532 378.4 235.148C379.024 234.74 379.336 234.128 379.336 233.312C379.336 232.448 379.048 231.812 378.472 231.404C377.896 230.996 376.996 230.792 375.772 230.792H370.48V235.724ZM370.48 227.804H375.196C376.348 227.804 377.212 227.6 377.788 227.192C378.388 226.76 378.688 226.16 378.688 225.392C378.688 224.6 378.388 224.012 377.788 223.628C377.212 223.244 376.348 223.052 375.196 223.052H370.48V227.804ZM395.626 238.964L395.842 235.184C396.01 235.208 396.166 235.232 396.31 235.256C396.454 235.28 396.586 235.292 396.706 235.292C397.45 235.292 398.026 235.064 398.434 234.608C398.842 234.152 399.142 233.54 399.334 232.772C399.55 231.98 399.694 231.104 399.766 230.144C399.862 229.16 399.934 228.176 399.982 227.192L400.306 219.776H415.858V239H411.358V222.368L412.402 223.592H403.258L404.23 222.332L403.978 227.408C403.906 229.112 403.762 230.696 403.546 232.16C403.354 233.6 403.042 234.86 402.61 235.94C402.202 237.02 401.626 237.86 400.882 238.46C400.162 239.06 399.238 239.36 398.11 239.36C397.75 239.36 397.354 239.324 396.922 239.252C396.514 239.18 396.082 239.084 395.626 238.964ZM433.583 239V235.112L433.331 234.284V227.48C433.331 226.16 432.935 225.14 432.143 224.42C431.351 223.676 430.151 223.304 428.543 223.304C427.463 223.304 426.395 223.472 425.339 223.808C424.307 224.144 423.431 224.612 422.711 225.212L420.947 221.936C421.979 221.144 423.203 220.556 424.619 220.172C426.059 219.764 427.547 219.56 429.083 219.56C431.867 219.56 434.015 220.232 435.527 221.576C437.063 222.896 437.831 224.948 437.831 227.732V239H433.583ZM427.535 239.252C426.095 239.252 424.835 239.012 423.755 238.532C422.675 238.028 421.835 237.344 421.235 236.48C420.659 235.592 420.371 234.596 420.371 233.492C420.371 232.412 420.623 231.44 421.127 230.576C421.655 229.712 422.507 229.028 423.683 228.524C424.859 228.02 426.419 227.768 428.363 227.768H433.943V230.756H428.687C427.151 230.756 426.119 231.008 425.591 231.512C425.063 231.992 424.799 232.592 424.799 233.312C424.799 234.128 425.123 234.776 425.771 235.256C426.419 235.736 427.319 235.976 428.471 235.976C429.575 235.976 430.559 235.724 431.423 235.22C432.311 234.716 432.947 233.972 433.331 232.988L434.087 235.688C433.655 236.816 432.875 237.692 431.747 238.316C430.643 238.94 429.239 239.252 427.535 239.252ZM452.579 239.36C450.995 239.36 449.579 239.12 448.331 238.64C447.083 238.16 446.003 237.428 445.091 236.444C444.203 235.436 443.519 234.164 443.039 232.628C442.559 231.092 442.319 229.268 442.319 227.156C442.319 225.62 442.451 224.216 442.715 222.944C442.979 221.672 443.375 220.532 443.903 219.524C444.431 218.492 445.091 217.58 445.883 216.788C446.699 215.996 447.647 215.336 448.727 214.808C449.807 214.28 451.031 213.872 452.399 213.584L461.327 211.676L461.975 215.708L453.875 217.364C453.419 217.46 452.867 217.604 452.219 217.796C451.595 217.964 450.947 218.228 450.275 218.588C449.627 218.924 449.015 219.416 448.439 220.064C447.887 220.688 447.431 221.504 447.071 222.512C446.735 223.496 446.567 224.732 446.567 226.22C446.567 226.676 446.579 227.024 446.603 227.264C446.651 227.48 446.687 227.72 446.711 227.984C446.759 228.224 446.783 228.584 446.783 229.064L445.091 227.3C445.571 226.076 446.231 225.032 447.071 224.168C447.935 223.28 448.931 222.608 450.059 222.152C451.211 221.672 452.459 221.432 453.803 221.432C455.603 221.432 457.199 221.804 458.591 222.548C459.983 223.292 461.075 224.336 461.867 225.68C462.659 227.024 463.055 228.548 463.055 230.252C463.055 232.028 462.623 233.6 461.759 234.968C460.895 236.336 459.671 237.416 458.087 238.208C456.527 238.976 454.691 239.36 452.579 239.36ZM452.939 235.724C454.019 235.724 454.967 235.496 455.783 235.04C456.623 234.56 457.271 233.912 457.727 233.096C458.207 232.28 458.447 231.368 458.447 230.36C458.447 229.352 458.207 228.476 457.727 227.732C457.271 226.964 456.623 226.352 455.783 225.896C454.967 225.44 453.995 225.212 452.867 225.212C451.787 225.212 450.815 225.428 449.951 225.86C449.111 226.292 448.451 226.892 447.971 227.66C447.515 228.404 447.287 229.268 447.287 230.252C447.287 231.26 447.527 232.184 448.007 233.024C448.487 233.864 449.147 234.524 449.987 235.004C450.851 235.484 451.835 235.724 452.939 235.724ZM467.411 239V219.776H471.911V232.448L482.531 219.776H486.635V239H482.135V226.328L471.551 239H467.411ZM503.344 239.252C501.784 239.252 500.356 238.892 499.06 238.172C497.788 237.452 496.768 236.372 496 234.932C495.256 233.468 494.884 231.62 494.884 229.388C494.884 227.132 495.244 225.284 495.964 223.844C496.708 222.404 497.716 221.336 498.988 220.64C500.26 219.92 501.712 219.56 503.344 219.56C505.24 219.56 506.908 219.968 508.348 220.784C509.812 221.6 510.964 222.74 511.804 224.204C512.668 225.668 513.1 227.396 513.1 229.388C513.1 231.38 512.668 233.12 511.804 234.608C510.964 236.072 509.812 237.212 508.348 238.028C506.908 238.844 505.24 239.252 503.344 239.252ZM492.688 245.984V219.776H496.972V224.312L496.828 229.424L497.188 234.536V245.984H492.688ZM502.84 235.4C503.92 235.4 504.88 235.16 505.72 234.68C506.584 234.2 507.268 233.504 507.772 232.592C508.276 231.68 508.528 230.612 508.528 229.388C508.528 228.14 508.276 227.072 507.772 226.184C507.268 225.272 506.584 224.576 505.72 224.096C504.88 223.616 503.92 223.376 502.84 223.376C501.76 223.376 500.788 223.616 499.924 224.096C499.06 224.576 498.376 225.272 497.872 226.184C497.368 227.072 497.116 228.14 497.116 229.388C497.116 230.612 497.368 231.68 497.872 232.592C498.376 233.504 499.06 234.2 499.924 234.68C500.788 235.16 501.76 235.4 502.84 235.4ZM517.579 239V219.776H522.079V232.448L532.699 219.776H536.803V239H532.303V226.328L521.719 239H517.579ZM542.856 239V219.776H547.356V227.588H557.04V219.776H561.54V239H557.04V231.404H547.356V239H542.856ZM571.567 239V222.512L572.611 223.592H564.799V219.776H582.799V223.592H575.023L576.067 222.512V239H571.567ZM605.467 239V219.776H609.967V239H605.467ZM595.423 226.112C597.895 226.112 599.767 226.664 601.039 227.768C602.335 228.872 602.983 230.432 602.983 232.448C602.983 234.536 602.263 236.168 600.823 237.344C599.407 238.496 597.391 239.06 594.775 239.036L586.063 239V219.776H590.563V226.076L595.423 226.112ZM594.379 235.724C595.699 235.748 596.707 235.472 597.403 234.896C598.099 234.32 598.447 233.48 598.447 232.376C598.447 231.272 598.099 230.48 597.403 230C596.731 229.496 595.723 229.232 594.379 229.208L590.563 229.172V235.688L594.379 235.724ZM621.687 230.648C621.687 229.76 621.831 228.98 622.119 228.308C622.407 227.636 622.779 227.036 623.235 226.508C623.691 225.98 624.171 225.488 624.675 225.032C625.203 224.576 625.695 224.132 626.151 223.7C626.607 223.268 626.979 222.812 627.267 222.332C627.555 221.852 627.699 221.312 627.699 220.712C627.699 219.704 627.291 218.888 626.475 218.264C625.659 217.64 624.567 217.328 623.199 217.328C621.879 217.328 620.727 217.568 619.743 218.048C618.783 218.528 617.979 219.212 617.331 220.1L613.839 217.832C614.847 216.464 616.167 215.396 617.799 214.628C619.431 213.836 621.363 213.44 623.595 213.44C625.347 213.44 626.883 213.704 628.203 214.232C629.523 214.736 630.555 215.48 631.299 216.464C632.043 217.424 632.415 218.6 632.415 219.992C632.415 220.952 632.259 221.792 631.947 222.512C631.659 223.232 631.275 223.868 630.795 224.42C630.339 224.948 629.847 225.452 629.319 225.932C628.791 226.388 628.287 226.844 627.807 227.3C627.351 227.756 626.979 228.248 626.691 228.776C626.403 229.304 626.259 229.928 626.259 230.648H621.687ZM623.991 239.252C623.151 239.252 622.455 238.976 621.903 238.424C621.375 237.872 621.111 237.212 621.111 236.444C621.111 235.676 621.375 235.028 621.903 234.5C622.455 233.948 623.151 233.672 623.991 233.672C624.831 233.672 625.515 233.948 626.043 234.5C626.571 235.028 626.835 235.676 626.835 236.444C626.835 237.212 626.571 237.872 626.043 238.424C625.515 238.976 624.831 239.252 623.991 239.252Z" fill="white"/>
</svg>
